<mxfile host="app.diagrams.net" modified="2024-05-12T10:59:00.563Z" agent="Mozilla/5.0 (Windows NT 10.0; Win64; x64) AppleWebKit/537.36 (KHTML, like Gecko) Chrome/124.0.0.0 Safari/537.36" etag="OXi67O54sCkV5gwofl-r" version="24.4.0" type="device">
  <diagram name="Page-1" id="GQXHtV__Kz42rYzoaJ_4">
    <mxGraphModel dx="2345" dy="614" grid="1" gridSize="10" guides="1" tooltips="1" connect="1" arrows="1" fold="1" page="1" pageScale="1" pageWidth="827" pageHeight="1169" math="0" shadow="0">
      <root>
        <mxCell id="0" />
        <mxCell id="1" parent="0" />
        <mxCell id="VEcLMsZylADz1bwRelsK-58" value="Sistemul bancar" style="swimlane;whiteSpace=wrap;html=1;" parent="1" vertex="1">
          <mxGeometry x="10" width="230" height="1120" as="geometry" />
        </mxCell>
        <mxCell id="VEcLMsZylADz1bwRelsK-94" value="Procesare plata" style="rounded=1;whiteSpace=wrap;html=1;" parent="VEcLMsZylADz1bwRelsK-58" vertex="1">
          <mxGeometry x="70" y="640" width="120" height="60" as="geometry" />
        </mxCell>
        <mxCell id="VEcLMsZylADz1bwRelsK-102" value="Actualizare solduri" style="rounded=1;whiteSpace=wrap;html=1;" parent="VEcLMsZylADz1bwRelsK-58" vertex="1">
          <mxGeometry x="60" y="760" width="120" height="60" as="geometry" />
        </mxCell>
        <mxCell id="VEcLMsZylADz1bwRelsK-59" value="Clientii/Utilizatorii" style="swimlane;whiteSpace=wrap;html=1;" parent="1" vertex="1">
          <mxGeometry x="-460" width="470" height="1120" as="geometry" />
        </mxCell>
        <mxCell id="VEcLMsZylADz1bwRelsK-83" value="" style="endArrow=classic;html=1;rounded=0;exitX=0.5;exitY=1;exitDx=0;exitDy=0;" parent="VEcLMsZylADz1bwRelsK-59" source="VEcLMsZylADz1bwRelsK-71" edge="1">
          <mxGeometry width="50" height="50" relative="1" as="geometry">
            <mxPoint x="45" y="620" as="sourcePoint" />
            <mxPoint x="218" y="480" as="targetPoint" />
          </mxGeometry>
        </mxCell>
        <mxCell id="VEcLMsZylADz1bwRelsK-87" value="" style="endArrow=classic;html=1;rounded=0;" parent="VEcLMsZylADz1bwRelsK-59" edge="1">
          <mxGeometry width="50" height="50" relative="1" as="geometry">
            <mxPoint x="270" y="480" as="sourcePoint" />
            <mxPoint x="270" y="530" as="targetPoint" />
          </mxGeometry>
        </mxCell>
        <mxCell id="VEcLMsZylADz1bwRelsK-88" value="Confirmare plata" style="rounded=1;whiteSpace=wrap;html=1;" parent="VEcLMsZylADz1bwRelsK-59" vertex="1">
          <mxGeometry x="220" y="535" width="120" height="60" as="geometry" />
        </mxCell>
        <mxCell id="VEcLMsZylADz1bwRelsK-92" value="" style="endArrow=classic;html=1;rounded=0;" parent="VEcLMsZylADz1bwRelsK-59" edge="1">
          <mxGeometry width="50" height="50" relative="1" as="geometry">
            <mxPoint x="140" y="480" as="sourcePoint" />
            <mxPoint x="140" y="530" as="targetPoint" />
          </mxGeometry>
        </mxCell>
        <mxCell id="p1BomepDAXwu22JXmfnB-8" value="" style="group" vertex="1" connectable="0" parent="VEcLMsZylADz1bwRelsK-59">
          <mxGeometry x="20" y="50" width="460" height="930" as="geometry" />
        </mxCell>
        <mxCell id="p1BomepDAXwu22JXmfnB-7" value="" style="group" vertex="1" connectable="0" parent="p1BomepDAXwu22JXmfnB-8">
          <mxGeometry width="460" height="830" as="geometry" />
        </mxCell>
        <mxCell id="p1BomepDAXwu22JXmfnB-6" value="" style="group" vertex="1" connectable="0" parent="p1BomepDAXwu22JXmfnB-7">
          <mxGeometry width="460" height="640" as="geometry" />
        </mxCell>
        <mxCell id="VEcLMsZylADz1bwRelsK-93" value="Intampina probleme" style="rounded=1;whiteSpace=wrap;html=1;" parent="p1BomepDAXwu22JXmfnB-6" vertex="1">
          <mxGeometry x="60" y="480" width="120" height="60" as="geometry" />
        </mxCell>
        <mxCell id="p1BomepDAXwu22JXmfnB-5" value="" style="group" vertex="1" connectable="0" parent="p1BomepDAXwu22JXmfnB-6">
          <mxGeometry x="27.5" width="230" height="470" as="geometry" />
        </mxCell>
        <mxCell id="VEcLMsZylADz1bwRelsK-71" value="Introducere suma si detalii cont bancar" style="rounded=1;whiteSpace=wrap;html=1;" parent="p1BomepDAXwu22JXmfnB-5" vertex="1">
          <mxGeometry x="110" y="330" width="120" height="60" as="geometry" />
        </mxCell>
        <mxCell id="p1BomepDAXwu22JXmfnB-4" value="" style="group" vertex="1" connectable="0" parent="p1BomepDAXwu22JXmfnB-5">
          <mxGeometry width="230" height="330" as="geometry" />
        </mxCell>
        <mxCell id="p1BomepDAXwu22JXmfnB-3" value="" style="group" vertex="1" connectable="0" parent="p1BomepDAXwu22JXmfnB-4">
          <mxGeometry x="110" width="120" height="200" as="geometry" />
        </mxCell>
        <mxCell id="p1BomepDAXwu22JXmfnB-2" value="" style="group" vertex="1" connectable="0" parent="p1BomepDAXwu22JXmfnB-3">
          <mxGeometry width="120" height="200" as="geometry" />
        </mxCell>
        <mxCell id="VEcLMsZylADz1bwRelsK-66" value="START" style="ellipse;" parent="p1BomepDAXwu22JXmfnB-2" vertex="1">
          <mxGeometry x="25" width="65" height="60" as="geometry" />
        </mxCell>
        <mxCell id="p1BomepDAXwu22JXmfnB-1" value="" style="group" vertex="1" connectable="0" parent="p1BomepDAXwu22JXmfnB-2">
          <mxGeometry y="140" width="120" height="60" as="geometry" />
        </mxCell>
        <mxCell id="VEcLMsZylADz1bwRelsK-67" value="Autentificare utilizator" style="rounded=1;whiteSpace=wrap;html=1;" parent="p1BomepDAXwu22JXmfnB-1" vertex="1">
          <mxGeometry width="120" height="60" as="geometry" />
        </mxCell>
        <mxCell id="VEcLMsZylADz1bwRelsK-68" value="" style="edgeStyle=orthogonalEdgeStyle;rounded=0;orthogonalLoop=1;jettySize=auto;html=1;" parent="p1BomepDAXwu22JXmfnB-2" source="VEcLMsZylADz1bwRelsK-66" target="VEcLMsZylADz1bwRelsK-67" edge="1">
          <mxGeometry relative="1" as="geometry">
            <Array as="points">
              <mxPoint x="58" y="110" />
              <mxPoint x="58" y="110" />
            </Array>
          </mxGeometry>
        </mxCell>
        <mxCell id="VEcLMsZylADz1bwRelsK-69" value="Selectare destinatie plata" style="rounded=1;whiteSpace=wrap;html=1;" parent="p1BomepDAXwu22JXmfnB-4" vertex="1">
          <mxGeometry x="110" y="230" width="120" height="60" as="geometry" />
        </mxCell>
        <mxCell id="VEcLMsZylADz1bwRelsK-70" value="" style="edgeStyle=orthogonalEdgeStyle;rounded=0;orthogonalLoop=1;jettySize=auto;html=1;" parent="p1BomepDAXwu22JXmfnB-4" source="VEcLMsZylADz1bwRelsK-67" target="VEcLMsZylADz1bwRelsK-69" edge="1">
          <mxGeometry relative="1" as="geometry" />
        </mxCell>
        <mxCell id="VEcLMsZylADz1bwRelsK-72" value="" style="edgeStyle=orthogonalEdgeStyle;rounded=0;orthogonalLoop=1;jettySize=auto;html=1;" parent="p1BomepDAXwu22JXmfnB-5" source="VEcLMsZylADz1bwRelsK-69" target="VEcLMsZylADz1bwRelsK-71" edge="1">
          <mxGeometry relative="1" as="geometry" />
        </mxCell>
        <mxCell id="VEcLMsZylADz1bwRelsK-86" value="" style="endArrow=none;html=1;rounded=0;" parent="p1BomepDAXwu22JXmfnB-5" edge="1">
          <mxGeometry width="50" height="50" relative="1" as="geometry">
            <mxPoint x="65" y="430" as="sourcePoint" />
            <mxPoint x="275" y="430" as="targetPoint" />
          </mxGeometry>
        </mxCell>
        <mxCell id="VEcLMsZylADz1bwRelsK-118" value="Notificarea situatiei actuale a soldului" style="rounded=1;whiteSpace=wrap;html=1;" parent="p1BomepDAXwu22JXmfnB-8" vertex="1">
          <mxGeometry x="120" y="850" width="120" height="60" as="geometry" />
        </mxCell>
        <mxCell id="VEcLMsZylADz1bwRelsK-121" value="" style="ellipse;html=1;shape=endState;fillColor=strokeColor;" parent="VEcLMsZylADz1bwRelsK-59" vertex="1">
          <mxGeometry x="170" y="1030" width="60" height="60" as="geometry" />
        </mxCell>
        <mxCell id="VEcLMsZylADz1bwRelsK-123" value="" style="edgeStyle=orthogonalEdgeStyle;rounded=0;orthogonalLoop=1;jettySize=auto;html=1;" parent="VEcLMsZylADz1bwRelsK-59" source="VEcLMsZylADz1bwRelsK-118" target="VEcLMsZylADz1bwRelsK-121" edge="1">
          <mxGeometry relative="1" as="geometry">
            <Array as="points">
              <mxPoint x="200.5" y="915" />
              <mxPoint x="200.5" y="915" />
            </Array>
          </mxGeometry>
        </mxCell>
        <mxCell id="VEcLMsZylADz1bwRelsK-63" value="Sistem procesarea platilor" style="swimlane;whiteSpace=wrap;html=1;" parent="1" vertex="1">
          <mxGeometry x="240" width="190" height="1120" as="geometry" />
        </mxCell>
        <mxCell id="VEcLMsZylADz1bwRelsK-98" value="Notificare sistem de procesare plati" style="rounded=1;whiteSpace=wrap;html=1;" parent="VEcLMsZylADz1bwRelsK-63" vertex="1">
          <mxGeometry x="50" y="640" width="120" height="60" as="geometry" />
        </mxCell>
        <mxCell id="VEcLMsZylADz1bwRelsK-62" value="Personal de servicii clienti" style="swimlane;whiteSpace=wrap;html=1;" parent="1" vertex="1">
          <mxGeometry x="-640" width="180" height="1120" as="geometry" />
        </mxCell>
        <mxCell id="p1BomepDAXwu22JXmfnB-11" value="Identificarea problemei" style="rounded=1;whiteSpace=wrap;html=1;" vertex="1" parent="VEcLMsZylADz1bwRelsK-62">
          <mxGeometry x="30" y="530" width="120" height="60" as="geometry" />
        </mxCell>
        <mxCell id="p1BomepDAXwu22JXmfnB-19" value="Confirmarea rezolvarii problemei" style="rounded=1;whiteSpace=wrap;html=1;" vertex="1" parent="VEcLMsZylADz1bwRelsK-62">
          <mxGeometry x="30" y="670" width="120" height="60" as="geometry" />
        </mxCell>
        <mxCell id="VEcLMsZylADz1bwRelsK-65" value="Serviciul de notificari" style="swimlane;whiteSpace=wrap;html=1;" parent="1" vertex="1">
          <mxGeometry x="610" width="170" height="1120" as="geometry" />
        </mxCell>
        <mxCell id="VEcLMsZylADz1bwRelsK-116" value="Primirea situatiei actuale a soldului" style="rounded=1;whiteSpace=wrap;html=1;" parent="VEcLMsZylADz1bwRelsK-65" vertex="1">
          <mxGeometry x="25" y="820" width="120" height="60" as="geometry" />
        </mxCell>
        <mxCell id="VEcLMsZylADz1bwRelsK-82" value="Administrator sistem" style="swimlane;whiteSpace=wrap;html=1;" parent="1" vertex="1">
          <mxGeometry x="-820" width="180" height="1120" as="geometry" />
        </mxCell>
        <mxCell id="p1BomepDAXwu22JXmfnB-17" value="Rezolvarea problemei" style="rounded=1;whiteSpace=wrap;html=1;" vertex="1" parent="VEcLMsZylADz1bwRelsK-82">
          <mxGeometry x="30" y="670" width="120" height="60" as="geometry" />
        </mxCell>
        <mxCell id="p1BomepDAXwu22JXmfnB-15" value="Transmiterea problemei catre administrator" style="rounded=1;whiteSpace=wrap;html=1;" vertex="1" parent="VEcLMsZylADz1bwRelsK-82">
          <mxGeometry x="30" y="530" width="120" height="60" as="geometry" />
        </mxCell>
        <mxCell id="p1BomepDAXwu22JXmfnB-18" value="" style="edgeStyle=orthogonalEdgeStyle;rounded=0;orthogonalLoop=1;jettySize=auto;html=1;" edge="1" parent="VEcLMsZylADz1bwRelsK-82" source="p1BomepDAXwu22JXmfnB-15" target="p1BomepDAXwu22JXmfnB-17">
          <mxGeometry relative="1" as="geometry" />
        </mxCell>
        <mxCell id="VEcLMsZylADz1bwRelsK-95" value="" style="edgeStyle=orthogonalEdgeStyle;rounded=0;orthogonalLoop=1;jettySize=auto;html=1;" parent="1" source="VEcLMsZylADz1bwRelsK-88" target="VEcLMsZylADz1bwRelsK-94" edge="1">
          <mxGeometry relative="1" as="geometry" />
        </mxCell>
        <mxCell id="VEcLMsZylADz1bwRelsK-64" value="Sistem procesarea facturilor" style="swimlane;whiteSpace=wrap;html=1;" parent="1" vertex="1">
          <mxGeometry x="430" width="180" height="1120" as="geometry" />
        </mxCell>
        <mxCell id="VEcLMsZylADz1bwRelsK-100" value="Notificare sistem de procesare facturi" style="rounded=1;whiteSpace=wrap;html=1;" parent="VEcLMsZylADz1bwRelsK-64" vertex="1">
          <mxGeometry x="40" y="640" width="120" height="60" as="geometry" />
        </mxCell>
        <mxCell id="VEcLMsZylADz1bwRelsK-99" value="" style="edgeStyle=orthogonalEdgeStyle;rounded=0;orthogonalLoop=1;jettySize=auto;html=1;" parent="1" source="VEcLMsZylADz1bwRelsK-94" target="VEcLMsZylADz1bwRelsK-98" edge="1">
          <mxGeometry relative="1" as="geometry" />
        </mxCell>
        <mxCell id="VEcLMsZylADz1bwRelsK-101" value="" style="edgeStyle=orthogonalEdgeStyle;rounded=0;orthogonalLoop=1;jettySize=auto;html=1;" parent="1" source="VEcLMsZylADz1bwRelsK-98" target="VEcLMsZylADz1bwRelsK-100" edge="1">
          <mxGeometry relative="1" as="geometry" />
        </mxCell>
        <mxCell id="VEcLMsZylADz1bwRelsK-103" value="" style="edgeStyle=orthogonalEdgeStyle;rounded=0;orthogonalLoop=1;jettySize=auto;html=1;" parent="1" source="VEcLMsZylADz1bwRelsK-100" target="VEcLMsZylADz1bwRelsK-102" edge="1">
          <mxGeometry relative="1" as="geometry">
            <Array as="points">
              <mxPoint x="530" y="790" />
            </Array>
          </mxGeometry>
        </mxCell>
        <mxCell id="VEcLMsZylADz1bwRelsK-117" value="" style="edgeStyle=orthogonalEdgeStyle;rounded=0;orthogonalLoop=1;jettySize=auto;html=1;" parent="1" source="VEcLMsZylADz1bwRelsK-102" target="VEcLMsZylADz1bwRelsK-116" edge="1">
          <mxGeometry relative="1" as="geometry">
            <Array as="points">
              <mxPoint x="140" y="850" />
            </Array>
          </mxGeometry>
        </mxCell>
        <mxCell id="VEcLMsZylADz1bwRelsK-119" value="" style="edgeStyle=orthogonalEdgeStyle;rounded=0;orthogonalLoop=1;jettySize=auto;html=1;" parent="1" source="VEcLMsZylADz1bwRelsK-116" target="VEcLMsZylADz1bwRelsK-118" edge="1">
          <mxGeometry relative="1" as="geometry">
            <Array as="points">
              <mxPoint x="695" y="930" />
              <mxPoint x="-260" y="930" />
            </Array>
          </mxGeometry>
        </mxCell>
        <mxCell id="p1BomepDAXwu22JXmfnB-12" value="" style="edgeStyle=orthogonalEdgeStyle;rounded=0;orthogonalLoop=1;jettySize=auto;html=1;" edge="1" parent="1" source="VEcLMsZylADz1bwRelsK-93" target="p1BomepDAXwu22JXmfnB-11">
          <mxGeometry relative="1" as="geometry" />
        </mxCell>
        <mxCell id="p1BomepDAXwu22JXmfnB-16" value="" style="edgeStyle=orthogonalEdgeStyle;rounded=0;orthogonalLoop=1;jettySize=auto;html=1;" edge="1" parent="1" source="p1BomepDAXwu22JXmfnB-11" target="p1BomepDAXwu22JXmfnB-15">
          <mxGeometry relative="1" as="geometry" />
        </mxCell>
        <mxCell id="p1BomepDAXwu22JXmfnB-20" value="" style="edgeStyle=orthogonalEdgeStyle;rounded=0;orthogonalLoop=1;jettySize=auto;html=1;" edge="1" parent="1" source="p1BomepDAXwu22JXmfnB-17" target="p1BomepDAXwu22JXmfnB-19">
          <mxGeometry relative="1" as="geometry" />
        </mxCell>
        <mxCell id="p1BomepDAXwu22JXmfnB-23" value="" style="edgeStyle=orthogonalEdgeStyle;rounded=0;orthogonalLoop=1;jettySize=auto;html=1;" edge="1" parent="1" source="p1BomepDAXwu22JXmfnB-19">
          <mxGeometry relative="1" as="geometry">
            <mxPoint x="-190" y="600" as="targetPoint" />
          </mxGeometry>
        </mxCell>
      </root>
    </mxGraphModel>
  </diagram>
</mxfile>
